<svg height="78" viewBox="0 0 78 78" width="78" xmlns="http://www.w3.org/2000/svg" xmlns:xlink="http://www.w3.org/1999/xlink"><filter id="a" filterUnits="userSpaceOnUse" height="78" width="78" x="0" y="0"><feOffset/><feGaussianBlur result="blur" stdDeviation="3"/><feFlood flood-opacity=".302"/><feComposite in2="blur" operator="in"/><feComposite in="SourceGraphic"/></filter><g filter="url(#a)"><g fill="#07689f" transform="translate(9 9)"><path d="m30 58.5c-3.84814072 0-7.58036995-.75333023-11.09301949-2.23905945-3.39359092-1.43535995-6.44165039-3.49052048-9.05952072-6.10840225-2.61787986-2.61786652-4.67303991-5.66592789-6.10839986-9.05951691-1.48572994-3.51264953-2.23905993-7.24488067-2.23905993-11.09302139s.75332999-7.58036995 2.23905993-11.09301949c1.43535995-3.39359092 3.49052-6.44165039 6.10839986-9.05952072 2.61787033-2.61787986 5.6659298-4.67303991 9.05952072-6.10839986 3.51264954-1.48572994 7.24487877-2.23905993 11.09301949-2.23905993s7.58037186.75332999 11.09302139 2.23905993c3.39358902 1.43535995 6.44165039 3.49052 9.05951691 6.10839986 2.61788177 2.61787033 4.6730423 5.6659298 6.10840225 9.05952072 1.48572922 3.51264954 2.23905945 7.24487877 2.23905945 11.09301949s-.75333023 7.58037186-2.23905945 11.09302139c-1.43535995 3.39358902-3.49052048 6.44165039-6.10840225 9.05951691-2.61786652 2.61788177-5.66592789 4.6730423-9.05951691 6.10840225-3.51264953 1.48572922-7.24488067 2.23905945-11.09302139 2.23905945z"/><path d="m30 3c-3.64630127 0-7.18193436.7134552-10.50870132 2.12056732-3.21477509 1.35973358-6.10257721 3.30694199-8.58318711 5.78754425-2.48060226 2.4806099-4.42781067 5.36841202-5.78754425 8.58318711-1.40711212 3.32676696-2.12056732 6.86240005-2.12056732 10.50870132s.7134552 7.18193054 2.12056732 10.50869751c1.35973358 3.21478271 3.30694199 6.10258102 5.78754425 8.58319092 2.4806099 2.48059845 5.36841202 4.42781067 8.58318711 5.78754425 3.32676696 1.40711212 6.86240005 2.12056732 10.50870132 2.12056732s7.18193054-.7134552 10.50869751-2.12056732c3.21478271-1.35973358 6.10258102-3.3069458 8.58319092-5.78754425 2.48059845-2.4806099 4.42781067-5.36840821 5.78754425-8.58319092 1.40711212-3.32676697 2.12056732-6.86239624 2.12056732-10.50869751s-.7134552-7.18193436-2.12056732-10.50870132c-1.35973358-3.21477509-3.3069458-6.10257721-5.78754425-8.58318711-2.4806099-2.48060226-5.36840821-4.42781067-8.58319092-5.78754425-3.32676697-1.40711212-6.86239624-2.12056732-10.50869751-2.12056732m0-3c16.56854248 0 30 13.4314537 30 30 0 16.56854248-13.43145752 30-30 30-16.5685463 0-30-13.43145752-30-30 0-16.5685463 13.4314537-30 30-30z" fill="#fff"/></g></g><g transform="translate(27 27)"><path d="m0 0h24v24h-24z" fill="none"/><path d="m18 13h-5v5a1 1 0 0 1 -2 0v-5h-5a1 1 0 0 1 0-2h5v-5a1 1 0 0 1 2 0v5h5a1 1 0 0 1 0 2z" fill="#fff"/></g></svg>