<svg height="144.003" viewBox="0 0 280 144.003" width="280" xmlns="http://www.w3.org/2000/svg"><g fill="#eee"><path d="m1977.565 383.165h-.005l-59.041-.116a1.9 1.9 0 0 1 -1.629-.93c-.618-1.035-3.614-6.384-2-9.942a15.413 15.413 0 0 1 17.875-8.527 15.386 15.386 0 0 1 15.318-13.97 15.384 15.384 0 0 1 15.316 13.97 15.414 15.414 0 0 1 17.69 8.134c1.8 3.671-1.251 9.329-1.88 10.427a1.9 1.9 0 0 1 -1.644.954zm-57.914-3.918 56.763.111c.962-1.988 1.841-4.722 1.264-5.9a11.59 11.59 0 0 0 -15.36-5.381 1.9 1.9 0 0 1 -2.708-1.906 11.567 11.567 0 0 0 -11.523-12.686 11.575 11.575 0 0 0 -11.576 11.578 11.074 11.074 0 0 0 .054 1.111 1.9 1.9 0 0 1 -2.711 1.9 11.424 11.424 0 0 0 -4.952-1.111 11.61 11.61 0 0 0 -10.544 6.789c-.488 1.069.342 3.602 1.293 5.495z" transform="translate(-1914.421 -287.183)"/><path d="m2104.144 345.984-59.04-.116a1.9 1.9 0 0 1 -1.63-.93c-.618-1.035-3.614-6.384-2-9.941a15.412 15.412 0 0 1 17.875-8.529 15.384 15.384 0 0 1 15.317-13.97 15.385 15.385 0 0 1 15.316 13.97 15.415 15.415 0 0 1 17.69 8.134c1.8 3.671-1.251 9.329-1.881 10.426a1.906 1.906 0 0 1 -1.647.956zm-57.911-3.918 56.764.113c.96-1.988 1.839-4.723 1.262-5.9a11.589 11.589 0 0 0 -15.36-5.382 1.9 1.9 0 0 1 -2.708-1.9 11.567 11.567 0 0 0 -11.521-12.697 11.577 11.577 0 0 0 -11.576 11.578c0 .373.019.748.054 1.109a1.9 1.9 0 0 1 -2.712 1.9 11.448 11.448 0 0 0 -4.951-1.111 11.611 11.611 0 0 0 -10.544 6.789c-.491 1.077.341 3.608 1.292 5.501z" transform="translate(-1828.236 -312.499)"/><path d="m2064.145 411.734h-.005l-59.039-.116a1.9 1.9 0 0 1 -1.631-.93c-.618-1.035-3.613-6.384-2-9.941a15.412 15.412 0 0 1 17.875-8.529 15.386 15.386 0 0 1 15.318-13.97 15.386 15.386 0 0 1 15.316 13.97 15.414 15.414 0 0 1 17.69 8.134c1.8 3.671-1.251 9.329-1.881 10.427a1.9 1.9 0 0 1 -1.643.955zm-57.911-3.918 56.762.111c.96-1.988 1.839-4.722 1.263-5.9a11.59 11.59 0 0 0 -15.36-5.381 1.9 1.9 0 0 1 -2.708-1.9 11.57 11.57 0 0 0 -11.523-12.687 11.582 11.582 0 0 0 -11.577 11.58c0 .373.019.746.054 1.109a1.9 1.9 0 0 1 -2.711 1.9 11.453 11.453 0 0 0 -4.953-1.111 11.611 11.611 0 0 0 -10.544 6.789c-.486 1.066.345 3.597 1.298 5.49z" transform="translate(-1855.47 -267.731)"/></g></svg>